<svg
  xmlns="http://www.w3.org/2000/svg"
  xmlns:xlink="http://www.w3.org/1999/xlink"
  width="512"
  zoomAndPan="magnify"
  viewBox="0 0 384 383.999986"
  height="512"
  preserveAspectRatio="xMidYMid meet"
  version="1.0"
>
  <defs><clipPath id="346526c548"><path
        d="M 17.761719 19 L 293 19 L 293 370.691406 L 17.761719 370.691406 Z M 17.761719 19 "
        clip-rule="nonzero"
      /></clipPath><clipPath id="99756e1ced"><path
        d="M 209 12.941406 L 366.511719 12.941406 L 366.511719 370.691406 L 209 370.691406 Z M 209 12.941406 "
        clip-rule="nonzero"
      /></clipPath></defs><g clip-path="url(#346526c548)"><path
      fill="#4384ff"
      d="M 289.433594 234.902344 L 219.277344 49.34375 C 215.859375 40.308594 210 32.855469 202.511719 27.566406 C 195.003906 22.269531 186.019531 19.222656 176.363281 19.011719 C 166.628906 18.800781 157.503906 21.433594 149.824219 26.375 C 142.191406 31.277344 136.03125 38.5 132.175781 47.488281 L 21.660156 305.3125 C 17.867188 314.171875 16.878906 323.476562 18.53125 332.296875 C 20.203125 341.21875 24.480469 349.578125 31.195312 356.445312 C 37.949219 363.339844 46.230469 367.828125 55.105469 369.695312 C 63.984375 371.5625 73.355469 370.816406 82.273438 367.246094 L 262.957031 294.980469 C 274.816406 290.242188 283.695312 281.179688 288.484375 270.324219 C 293.257812 259.488281 293.949219 246.835938 289.433594 234.902344 Z M 188.398438 60.960938 L 258.554688 246.527344 C 259.894531 250.054688 259.683594 253.820312 258.257812 257.050781 C 256.835938 260.273438 254.203125 262.960938 250.695312 264.367188 L 70.011719 336.632812 C 67.253906 337.730469 64.460938 337.988281 61.902344 337.445312 C 59.339844 336.910156 56.894531 335.566406 54.859375 333.480469 C 52.78125 331.355469 51.476562 328.886719 51 326.335938 C 50.507812 323.691406 50.8125 320.875 51.960938 318.1875 L 162.484375 60.363281 C 163.617188 57.710938 165.453125 55.570312 167.730469 54.101562 C 169.964844 52.664062 172.683594 51.90625 175.632812 51.964844 C 178.664062 52.03125 181.355469 52.898438 183.480469 54.394531 C 185.613281 55.902344 187.339844 58.148438 188.398438 60.960938 Z M 188.398438 60.960938 "
      fill-opacity="1"
      fill-rule="evenodd"
    /></g><g clip-path="url(#99756e1ced)"><path
      fill="#4384ff"
      d="M 237.007812 54.902344 L 329.140625 298.550781 C 334.90625 313.792969 334.449219 330.59375 327.875 345.507812 C 323.457031 355.535156 316.546875 364.109375 307.886719 370.488281 L 337.875 358.496094 C 349.734375 353.757812 358.613281 344.695312 363.402344 333.835938 C 369.515625 319.957031 365.570312 301.886719 360.503906 288.230469 L 267.886719 43.28125 C 264.46875 34.242188 258.609375 26.796875 251.121094 21.507812 C 243.613281 16.207031 234.628906 13.167969 224.972656 12.957031 C 219.5625 12.835938 214.34375 13.597656 209.453125 15.140625 L 211.058594 16.238281 C 221.238281 23.425781 228.898438 33.449219 233.308594 45.09375 Z M 237.007812 54.902344 "
      fill-opacity="1"
      fill-rule="evenodd"
    /></g>
</svg>
